<svg width="404" height="432" viewBox="0 0 404 432" fill="none" xmlns="http://www.w3.org/2000/svg">
<g clip-path="url(#clip0_127_1727)">
<path d="M170.298 85.2363V346.936C170.298 394.025 132.106 432.124 85.2203 432.124C38.3349 432.124 0 393.882 0 346.936V85.2363C0 38.1476 38.1924 -0.0942383 85.2203 -0.0942383C108.734 -0.0942383 129.968 9.46621 145.359 24.8771C160.75 40.288 170.298 61.5493 170.298 85.2363Z" fill="#003A54"/>
<path d="M404.298 85.2363V346.936C404.298 394.025 366.106 432.124 319.22 432.124C272.335 432.124 234 393.882 234 346.936V85.2363C234 38.1476 272.192 -0.0942383 319.22 -0.0942383C342.734 -0.0942383 363.968 9.46621 379.359 24.8771C394.75 40.288 404.298 61.5493 404.298 85.2363Z" fill="#B6915B"/>
</g>
<defs>
<clipPath id="clip0_127_1727">
<rect width="404" height="432" fill="white"/>
</clipPath>
</defs>
</svg>
