<svg width="401" height="432" viewBox="0 0 401 432" fill="none" xmlns="http://www.w3.org/2000/svg">
<g clip-path="url(#clip0_127_1717)">
<path d="M170.298 219.367V346.935C170.298 394.024 132.248 432.123 85.2203 432.123C38.1924 432.123 0 393.881 0 346.935V219.367C0 172.136 38.0498 134.037 85.2203 134.037C108.734 134.037 129.968 143.597 145.501 159.008C160.892 174.419 170.441 195.68 170.441 219.367" fill="#909090"/>
<path d="M400.877 85.2363V346.936C400.877 394.025 362.685 432.124 315.799 432.124C268.914 432.124 230.579 393.882 230.579 346.936V85.2363C230.579 38.1476 268.771 -0.0942383 315.799 -0.0942383C339.313 -0.0942383 360.547 9.46621 375.938 24.8771C391.329 40.288 400.877 61.5493 400.877 85.2363Z" fill="#003A54"/>
</g>
<defs>
<clipPath id="clip0_127_1717">
<rect width="401" height="432" fill="white"/>
</clipPath>
</defs>
</svg>
